<?xml version="1.0" encoding="utf-8"?>
<!-- Generator: Adobe Illustrator 24.2.0, SVG Export Plug-In . SVG Version: 6.00 Build 0)  -->
<svg version="1.1" id="Layer_1" xmlns="http://www.w3.org/2000/svg" xmlns:xlink="http://www.w3.org/1999/xlink" x="0px" y="0px"
	 width="273.7px" height="80px" viewBox="0 0 273.7 80" style="enable-background:new 0 0 273.7 80;" xml:space="preserve">
<style type="text/css">
	.st0{fill-rule:evenodd;clip-rule:evenodd;fill:#FF8C32;}
	.st1{fill-rule:evenodd;clip-rule:evenodd;fill:#050FC8;}
	.st2{fill:#FF8C32;}
	.st3{fill:#050FC8;}
</style>
<path class="st0" d="M51.6,3c1.8-0.1,3.3,1.2,3.5,3c0.1,1.8-1.2,3.3-3,3.5c-11.4,0.9-14.7,9.1-18.5,18.8c-4,10.1-8.5,21.6-22,29.6
	c-1.5,0.9-3.5,0.4-4.4-1.1s-0.4-3.5,1.1-4.4C19.8,45.5,23.9,35.2,27.6,26C32.2,14.2,36.2,4.2,51.6,3z"/>
<path class="st0" d="M26.3,58.7c-1.5,0.9-3.5,0.5-4.5-1.1c-0.9-1.5-0.5-3.5,1.1-4.5c3.4-2.1,7-3.4,10.6-3.9c3.8-0.5,7.5,0,10.8,1.5
	c3.4,1.5,6.3,4,8.4,7.5c1.8,2.9,3.1,6.5,3.6,10.8c0.2,1.8-1,3.4-2.8,3.6s-3.4-1-3.6-2.8c-0.4-3.3-1.4-6.1-2.7-8.3
	c-1.5-2.4-3.4-4-5.6-5c-2.2-1-4.8-1.3-7.4-1C31.7,56.1,29,57.1,26.3,58.7z"/>
<path class="st1" d="M47.7,24c-0.8,1.4-2.6,2-4,1.2s-2-2.6-1.2-4c3.5-6.5,9.8-9.5,15.6-9.7c2.1-0.1,4.2,0.3,6,0.9
	c2,0.7,3.6,1.8,4.9,3.3c2.4,2.8,3.2,6.6,1.3,11.3c-1,2.5-2.1,4.7-3.2,7c-3,6.1-5.9,12.1-5.7,20.2c0.1,1.6-1.2,3-2.9,3
	c-1.6,0.1-3-1.2-3-2.9c-0.3-9.6,3-16.2,6.2-23c1.1-2.2,2.1-4.4,3-6.6c0.9-2.3,0.7-4.1-0.3-5.3c-0.6-0.7-1.4-1.2-2.4-1.6
	c-1.1-0.4-2.5-0.6-3.8-0.6C54.4,17.5,50.1,19.6,47.7,24z"/>
<path class="st2" d="M78.8,16.7h2.6l5.3,8.2l0,0v-8.2h2v11h-2.5l-5.4-8.4l0,0v8.4h-2V16.7z"/>
<path class="st2" d="M96.5,16.7h7.3v1.8h-5.3v2.7h5.1V23h-5.1v3h5.6v1.8h-7.6V16.7L96.5,16.7z"/>
<path class="st2" d="M111.3,16.7h4.3c0.7,0,1.4,0.1,2.1,0.3c0.7,0.2,1.3,0.6,1.8,1c0.5,0.5,0.9,1,1.2,1.7c0.3,0.7,0.5,1.5,0.5,2.4
	s-0.2,1.8-0.5,2.4c-0.4,0.7-0.8,1.3-1.4,1.7s-1.2,0.8-1.9,1c-0.7,0.2-1.4,0.3-2,0.3h-4.1V16.7z M114.7,25.9c0.6,0,1.2-0.1,1.7-0.2
	c0.5-0.1,1-0.4,1.4-0.7s0.7-0.7,1-1.1c0.2-0.5,0.3-1,0.3-1.7s-0.1-1.2-0.3-1.7c-0.2-0.5-0.5-0.9-0.9-1.2s-0.8-0.5-1.3-0.7
	c-0.5-0.1-1.1-0.2-1.7-0.2h-1.8v7.5C113.2,25.9,114.7,25.9,114.7,25.9z"/>
<path class="st2" d="M128.3,16.7h7.3v1.8h-5.3v2.7h5.1V23h-5.1v3h5.6v1.8h-7.6V16.7L128.3,16.7z"/>
<path class="st2" d="M143.1,16.7h3.8c0.5,0,1,0,1.5,0.2c0.5,0.1,0.9,0.3,1.3,0.5c0.4,0.2,0.7,0.6,0.9,1s0.3,0.9,0.3,1.5
	c0,0.8-0.2,1.5-0.7,2c-0.4,0.5-1.1,0.9-1.9,1l2.9,4.9h-2.4l-2.5-4.7h-1.4v4.7h-2L143.1,16.7L143.1,16.7z M146.6,21.4
	c0.3,0,0.6,0,0.8,0c0.3,0,0.5-0.1,0.8-0.2c0.2-0.1,0.4-0.3,0.6-0.4c0.1-0.2,0.2-0.5,0.2-0.9c0-0.3-0.1-0.6-0.2-0.8
	c-0.1-0.2-0.3-0.3-0.5-0.4s-0.5-0.2-0.7-0.2c-0.3,0-0.5,0-0.8,0h-1.7v3L146.6,21.4L146.6,21.4L146.6,21.4z"/>
<path class="st2" d="M158.2,16.7h2v9.2h4.7v1.8h-6.6L158.2,16.7L158.2,16.7z"/>
<path class="st2" d="M175.1,16.7h1.7l4.7,11h-2.2l-1-2.5h-4.8l-1,2.5h-2.2L175.1,16.7z M177.6,23.5l-1.7-4.5l-1.7,4.5H177.6z"/>
<path class="st2" d="M188.1,16.7h2.6l5.3,8.2l0,0v-8.2h2v11h-2.5l-5.4-8.4l0,0v8.4h-2L188.1,16.7L188.1,16.7z"/>
<path class="st2" d="M205.7,16.7h4.3c0.7,0,1.4,0.1,2.1,0.3c0.7,0.2,1.3,0.6,1.8,1c0.5,0.5,0.9,1,1.2,1.7s0.5,1.5,0.5,2.4
	s-0.2,1.8-0.5,2.4c-0.4,0.7-0.8,1.3-1.4,1.7c-0.6,0.4-1.2,0.8-1.9,1s-1.4,0.3-2,0.3h-4.1L205.7,16.7L205.7,16.7z M209.1,25.9
	c0.6,0,1.2-0.1,1.7-0.2c0.5-0.1,1-0.4,1.4-0.7s0.7-0.7,1-1.1c0.2-0.5,0.3-1,0.3-1.7s-0.1-1.2-0.3-1.7s-0.5-0.9-0.9-1.2
	c-0.4-0.3-0.8-0.5-1.3-0.7s-1.1-0.2-1.7-0.2h-1.8v7.5C207.7,25.9,209.1,25.9,209.1,25.9z"/>
<path class="st2" d="M228.2,19.1c-0.2-0.3-0.5-0.5-0.8-0.7c-0.3-0.1-0.7-0.2-1.1-0.2c-0.2,0-0.4,0-0.7,0.1c-0.2,0.1-0.4,0.1-0.6,0.3
	c-0.2,0.1-0.3,0.3-0.4,0.4s-0.2,0.4-0.2,0.6c0,0.4,0.1,0.7,0.4,0.9c0.3,0.2,0.6,0.4,1,0.5s0.8,0.3,1.3,0.4s0.9,0.3,1.3,0.6
	c0.4,0.2,0.7,0.6,1,0.9s0.4,0.9,0.4,1.6c0,0.6-0.1,1.1-0.3,1.5s-0.5,0.8-0.9,1.1s-0.8,0.5-1.3,0.7c-0.5,0.1-1,0.2-1.5,0.2
	c-0.7,0-1.3-0.1-2-0.3c-0.6-0.2-1.2-0.6-1.6-1.1l1.5-1.4c0.2,0.4,0.6,0.6,0.9,0.9c0.4,0.2,0.8,0.3,1.2,0.3c0.2,0,0.5,0,0.7-0.1
	s0.4-0.2,0.6-0.3c0.2-0.1,0.3-0.3,0.4-0.5c0.1-0.2,0.2-0.4,0.2-0.7c0-0.4-0.1-0.7-0.4-0.9c-0.3-0.2-0.6-0.4-1-0.6
	c-0.4-0.2-0.8-0.3-1.3-0.4c-0.4-0.1-0.9-0.3-1.3-0.6c-0.4-0.2-0.7-0.5-1-0.9c-0.3-0.4-0.4-0.9-0.4-1.6c0-0.6,0.1-1.1,0.3-1.5
	s0.5-0.8,0.9-1c0.4-0.3,0.8-0.5,1.3-0.6s1-0.2,1.5-0.2c0.6,0,1.1,0.1,1.7,0.3c0.5,0.2,1,0.5,1.5,0.9L228.2,19.1z"/>
<path class="st2" d="M237,16.7h7.3v1.8H239v2.7h5.1V23H239v3h5.6v1.8H237V16.7L237,16.7z"/>
<path class="st2" d="M78.9,34.1h3l2.9,7.7l3-7.7h2.9v11h-1.9V36l0,0l-3.3,9.1h-1.4L80.8,36l0,0v9.1h-1.9
	C78.9,45.1,78.9,34.1,78.9,34.1z"/>
<path class="st2" d="M95.4,34.1h2v4.7h0.1l4.5-4.7h2.6l-5.1,5.1L105,45h-2.7l-4.8-5.4h-0.1V45h-2V34.1z"/>
<path class="st2" d="M108.2,34.1h4.3c0.4,0,0.8,0.1,1.2,0.2c0.4,0.1,0.8,0.3,1.1,0.5c0.3,0.2,0.6,0.5,0.8,0.9s0.3,0.8,0.3,1.3
	c0,0.6-0.2,1.1-0.5,1.5s-0.8,0.7-1.4,0.9l0,0c0.3,0,0.7,0.1,1,0.3s0.5,0.3,0.8,0.6c0.2,0.2,0.4,0.5,0.5,0.8s0.2,0.6,0.2,1
	c0,0.6-0.1,1.1-0.4,1.5c-0.2,0.4-0.6,0.7-0.9,1c-0.4,0.2-0.8,0.4-1.3,0.5s-1,0.2-1.5,0.2h-4C108.2,45.1,108.2,34.1,108.2,34.1z
	 M110.2,38.5h1.8c0.7,0,1.1-0.1,1.5-0.4c0.3-0.3,0.5-0.6,0.5-1c0-0.5-0.2-0.8-0.5-1.1c-0.3-0.2-0.9-0.3-1.6-0.3h-1.6
	C110.2,35.7,110.2,38.5,110.2,38.5z M110.2,43.4h1.8c0.3,0,0.5,0,0.8,0s0.5-0.1,0.8-0.2c0.2-0.1,0.4-0.3,0.6-0.5s0.2-0.5,0.2-0.9
	c0-0.6-0.2-1-0.6-1.2s-1-0.3-1.8-0.3h-1.9L110.2,43.4L110.2,43.4z"/>
<path class="st3" d="M124.5,34.1h3.7c0.5,0,1,0.1,1.5,0.2c0.5,0.1,0.9,0.3,1.3,0.5c0.4,0.2,0.7,0.6,0.9,1s0.3,0.9,0.3,1.5
	c0,0.7-0.1,1.3-0.4,1.7c-0.2,0.4-0.6,0.8-1,1s-0.9,0.4-1.4,0.5s-1.1,0.1-1.7,0.1h-1.4V45h-2L124.5,34.1L124.5,34.1z M127.6,38.8
	c0.3,0,0.6,0,0.9,0s0.6-0.1,0.8-0.2c0.3-0.1,0.5-0.3,0.6-0.5c0.2-0.2,0.2-0.5,0.2-0.9c0-0.3-0.1-0.6-0.2-0.8
	c-0.1-0.2-0.3-0.4-0.6-0.5c-0.2-0.1-0.5-0.2-0.8-0.2s-0.5,0-0.8,0h-1.4v3.1L127.6,38.8L127.6,38.8z"/>
<path class="st3" d="M138.6,34.1h1.7l4.7,11h-2.2l-1-2.5H137l-1,2.5h-2.2L138.6,34.1z M141.1,40.9l-1.7-4.5l-1.7,4.5H141.1z"/>
<path class="st3" d="M148.5,34.1h3.8c0.5,0,1,0.1,1.5,0.2c0.5,0.1,0.9,0.3,1.3,0.5c0.4,0.2,0.7,0.6,0.9,1s0.3,0.9,0.3,1.5
	c0,0.8-0.2,1.5-0.7,2c-0.4,0.5-1.1,0.9-1.9,1l2.9,4.9h-2.4l-2.6-4.7h-1.4v4.7h-2L148.5,34.1L148.5,34.1z M152,38.7
	c0.3,0,0.6,0,0.8,0c0.3,0,0.5-0.1,0.8-0.2c0.2-0.1,0.4-0.3,0.6-0.4c0.1-0.2,0.2-0.5,0.2-0.9c0-0.3-0.1-0.6-0.2-0.8
	c-0.1-0.2-0.3-0.3-0.5-0.4s-0.5-0.2-0.7-0.2c-0.3,0-0.5,0-0.8,0h-1.7v3L152,38.7L152,38.7z"/>
<path class="st3" d="M162.4,35.8H159V34h8.7v1.8h-3.4V45h-2L162.4,35.8L162.4,35.8z"/>
<path class="st3" d="M171.3,34.1h2v11h-2V34.1z"/>
<path class="st3" d="M185.4,36.6c-0.4-0.4-0.8-0.7-1.2-0.9c-0.4-0.1-0.8-0.2-1.1-0.2c-0.6,0-1.1,0.1-1.5,0.3
	c-0.5,0.2-0.9,0.5-1.2,0.8s-0.6,0.8-0.8,1.3s-0.3,1-0.3,1.5c0,0.6,0.1,1.1,0.3,1.6s0.4,0.9,0.8,1.3s0.7,0.6,1.2,0.9
	c0.5,0.2,1,0.3,1.5,0.3c0.4,0,0.9-0.1,1.3-0.3c0.4-0.2,0.8-0.6,1.2-1l1.6,1.1c-0.5,0.7-1.1,1.2-1.8,1.5s-1.5,0.5-2.3,0.5
	c-0.9,0-1.6-0.1-2.3-0.4c-0.7-0.3-1.3-0.7-1.8-1.2s-0.9-1.1-1.2-1.8s-0.4-1.5-0.4-2.3c0-0.9,0.1-1.7,0.4-2.4
	c0.3-0.7,0.7-1.3,1.2-1.8s1.1-0.9,1.8-1.2s1.5-0.4,2.3-0.4c0.7,0,1.4,0.1,2.1,0.4c0.6,0.3,1.2,0.7,1.8,1.3L185.4,36.6z"/>
<path class="st3" d="M190.6,34.1h2v11h-2V34.1z"/>
<path class="st3" d="M197.2,34.1h3.7c0.5,0,1,0.1,1.5,0.2c0.5,0.1,0.9,0.3,1.3,0.5c0.4,0.2,0.7,0.6,0.9,1s0.3,0.9,0.3,1.5
	c0,0.7-0.1,1.3-0.4,1.7c-0.2,0.4-0.6,0.8-1,1s-0.9,0.4-1.4,0.5s-1.1,0.1-1.7,0.1H199V45h-2L197.2,34.1L197.2,34.1z M200.3,38.8
	c0.3,0,0.6,0,0.9,0c0.3,0,0.6-0.1,0.8-0.2c0.3-0.1,0.5-0.3,0.6-0.5c0.2-0.2,0.2-0.5,0.2-0.9c0-0.3-0.1-0.6-0.2-0.8
	c-0.1-0.2-0.3-0.4-0.6-0.5c-0.2-0.1-0.5-0.2-0.8-0.2s-0.5,0-0.8,0H199v3.1L200.3,38.8L200.3,38.8z"/>
<path class="st3" d="M211.3,34.1h1.7l4.7,11h-2.2l-1-2.5h-4.8l-1,2.5h-2.2L211.3,34.1z M213.8,40.9l-1.7-4.5l-1.7,4.5H213.8z"/>
<path class="st3" d="M222,35.8h-3.4V34h8.7v1.8h-3.4V45h-2L222,35.8L222,35.8z"/>
<path class="st3" d="M230.8,34.1h2v11h-2V34.1z"/>
<path class="st3" d="M237.4,34.1h7.3v1.8h-5.3v2.7h5.1v1.8h-5.1v3h5.6V45h-7.6V34.1L237.4,34.1z"/>
<path class="st3" d="M78.9,51h3l2.9,7.7l3-7.7h2.9v11h-1.9v-9.1l0,0L85.5,62h-1.4l-3.3-9.1l0,0V62h-1.9C78.9,62,78.9,51,78.9,51z"/>
<path class="st3" d="M101.7,51h1.7l4.7,11h-2.2l-1-2.5h-4.8l-1,2.5h-2.2L101.7,51z M104.2,57.8l-1.7-4.5l-1.7,4.5H104.2z"/>
<path class="st3" d="M117.8,51h1.7l4.7,11H122l-1-2.5h-4.8l-1,2.5H113L117.8,51z M120.3,57.8l-1.7-4.5l-1.7,4.5H120.3z"/>
<path class="st3" d="M131.3,52.8h-3.4V51h8.7v1.8h-3.4V62h-2L131.3,52.8L131.3,52.8z"/>
<path class="st3" d="M148.2,53.4c-0.2-0.3-0.5-0.5-0.8-0.7c-0.3-0.1-0.7-0.2-1.1-0.2c-0.2,0-0.4,0-0.7,0.1c-0.2,0.1-0.4,0.1-0.6,0.3
	c-0.2,0.1-0.3,0.3-0.4,0.4c-0.1,0.2-0.2,0.4-0.2,0.6c0,0.4,0.1,0.7,0.4,0.9c0.3,0.2,0.6,0.4,1,0.5s0.8,0.3,1.3,0.4s0.9,0.3,1.3,0.6
	c0.4,0.2,0.7,0.6,1,0.9s0.4,0.9,0.4,1.6c0,0.6-0.1,1.1-0.3,1.5s-0.5,0.8-0.9,1.1c-0.4,0.3-0.8,0.5-1.3,0.7c-0.5,0.1-1,0.2-1.5,0.2
	c-0.7,0-1.3-0.1-2-0.3c-0.6-0.2-1.2-0.6-1.6-1.1l1.5-1.4c0.2,0.4,0.6,0.6,0.9,0.9c0.4,0.2,0.8,0.3,1.2,0.3c0.2,0,0.5,0,0.7-0.1
	s0.4-0.2,0.6-0.3c0.2-0.1,0.3-0.3,0.4-0.5c0.1-0.2,0.2-0.4,0.2-0.7c0-0.4-0.1-0.7-0.4-0.9s-0.6-0.4-1-0.6s-0.8-0.3-1.3-0.4
	s-0.9-0.3-1.3-0.5c-0.4-0.2-0.7-0.5-1-0.9s-0.4-0.9-0.4-1.6c0-0.6,0.1-1.1,0.3-1.5s0.5-0.8,0.9-1c0.4-0.3,0.8-0.5,1.3-0.6
	s1-0.2,1.5-0.2c0.6,0,1.1,0.1,1.7,0.3c0.5,0.2,1,0.5,1.5,0.9L148.2,53.4z"/>
<path class="st3" d="M164.3,53.6c-0.4-0.4-0.8-0.7-1.2-0.9c-0.4-0.1-0.8-0.2-1.1-0.2c-0.6,0-1.1,0.1-1.5,0.3
	c-0.5,0.2-0.9,0.5-1.2,0.8c-0.3,0.4-0.6,0.8-0.8,1.3s-0.3,1-0.3,1.5c0,0.6,0.1,1.1,0.3,1.6s0.4,0.9,0.8,1.3s0.7,0.6,1.2,0.9
	c0.5,0.2,1,0.3,1.5,0.3c0.4,0,0.9-0.1,1.3-0.3c0.4-0.2,0.8-0.6,1.2-1l1.6,1.1c-0.5,0.7-1.1,1.2-1.8,1.5s-1.5,0.5-2.3,0.5
	c-0.9,0-1.6-0.1-2.3-0.4s-1.3-0.7-1.8-1.2s-0.9-1.1-1.2-1.8c-0.3-0.7-0.4-1.5-0.4-2.3c0-0.9,0.1-1.7,0.4-2.4
	c0.3-0.7,0.7-1.3,1.2-1.8s1.1-0.9,1.8-1.2s1.5-0.4,2.3-0.4c0.7,0,1.4,0.1,2.1,0.4c0.6,0.3,1.2,0.7,1.8,1.3L164.3,53.6z"/>
<path class="st3" d="M172.3,51h2v4.4h5.1V51h2v11h-2v-4.8h-5.1V62h-2V51z"/>
<path class="st3" d="M192.3,51h1.7l4.7,11h-2.2l-1-2.5h-4.8l-1,2.5h-2.2L192.3,51z M194.8,57.8l-1.7-4.5l-1.7,4.5H194.8z"/>
<path class="st3" d="M204.9,51h3.7c0.5,0,1,0.1,1.5,0.2c0.5,0.1,0.9,0.3,1.3,0.5c0.4,0.2,0.7,0.6,0.9,1c0.2,0.4,0.3,0.9,0.3,1.5
	c0,0.7-0.1,1.3-0.4,1.7c-0.2,0.4-0.6,0.8-1,1s-0.9,0.4-1.4,0.5s-1.1,0.1-1.7,0.1h-1.4V62h-2L204.9,51L204.9,51z M208,55.8
	c0.3,0,0.6,0,0.9,0c0.3,0,0.6-0.1,0.8-0.2c0.3-0.1,0.5-0.3,0.6-0.5c0.2-0.2,0.2-0.5,0.2-0.9c0-0.3-0.1-0.6-0.2-0.8
	c-0.1-0.2-0.3-0.4-0.6-0.5c-0.2-0.1-0.5-0.2-0.8-0.2s-0.5,0-0.8,0h-1.4v3.1H208L208,55.8z"/>
<path class="st3" d="M219.3,51h3.7c0.5,0,1,0.1,1.5,0.2s0.9,0.3,1.3,0.5c0.4,0.2,0.7,0.6,0.9,1c0.2,0.4,0.3,0.9,0.3,1.5
	c0,0.7-0.1,1.3-0.4,1.7c-0.2,0.4-0.6,0.8-1,1s-0.9,0.4-1.4,0.5s-1.1,0.1-1.7,0.1h-1.4V62h-2L219.3,51L219.3,51z M222.4,55.8
	c0.3,0,0.6,0,0.9,0c0.3,0,0.6-0.1,0.8-0.2c0.3-0.1,0.5-0.3,0.6-0.5c0.2-0.2,0.2-0.5,0.2-0.9c0-0.3-0.1-0.6-0.2-0.8
	c-0.1-0.2-0.3-0.4-0.6-0.5c-0.2-0.1-0.5-0.2-0.8-0.2s-0.5,0-0.8,0h-1.4v3.1H222.4L222.4,55.8z"/>
<path class="st3" d="M232.4,51h2v11h-2V51z"/>
<path class="st3" d="M244.6,59c0,0.4-0.1,0.9-0.2,1.3s-0.3,0.8-0.6,1.1c-0.3,0.3-0.6,0.5-1,0.7s-0.9,0.3-1.4,0.3
	c-0.9,0-1.6-0.2-2.1-0.6c-0.6-0.4-0.9-1-1.1-1.9l1.8-0.4c0.1,0.4,0.2,0.7,0.4,0.9c0.2,0.2,0.5,0.3,0.9,0.3c0.6,0,0.9-0.2,1.1-0.6
	c0.2-0.4,0.3-0.9,0.3-1.6V51h2L244.6,59L244.6,59z"/>
</svg>
